<svg xmlns="http://www.w3.org/2000/svg" version="1.1" xmlns:xlink="http://www.w3.org/1999/xlink" xmlns:svgjs="http://svgjs.com/svgjs" width="1440" height="560" preserveAspectRatio="none" viewBox="0 0 1440 560"><g mask="url(&quot;#SvgjsMask1017&quot;)" fill="none"><rect width="1440" height="560" x="0" y="0" fill="rgba(25, 28, 50, 1)"></rect><path d="M919.673,348.196C936.266,347.285,949.955,337.268,958.969,323.307C969.02,307.739,977.118,288.827,968.642,272.348C959.624,254.815,939.387,247.187,919.673,246.904C899.387,246.613,878.463,253.401,868.208,270.906C857.86,288.57,860.772,311.035,872.118,328.075C882.343,343.43,901.253,349.207,919.673,348.196" fill="rgba(58, 180, 242, 0.52)" class="triangle-float2"></path><path d="M614.59,467.276C652.221,467.447,689.755,450.92,707.562,417.769C724.612,386.026,714.509,347.955,694.928,317.708C677.185,290.3,647.192,275.913,614.59,274.149C577.94,272.165,537.438,277.211,517.631,308.112C496.626,340.883,502.823,383.685,523.074,416.928C542.488,448.797,577.273,467.106,614.59,467.276" fill="rgba(58, 180, 242, 0.52)" class="triangle-float3"></path><path d="M749.093198363596 191.14691794035895L749.093198363596 297.5678566316476 855.5141370548847 297.5678566316476 855.5141370548847 191.14691794035892z" fill="rgba(58, 180, 242, 0.52)" class="triangle-float1"></path><path d="M830.973,379.929C847.555,378.453,856.166,361.883,864.292,347.353C872.132,333.335,881.805,317.314,873.767,303.409C865.733,289.511,847.025,289.837,830.973,289.71C814.586,289.58,796.412,289.315,786.986,302.721C776.369,317.82,776.373,338.326,785.51,354.364C794.734,370.555,812.412,381.581,830.973,379.929" fill="rgba(58, 180, 242, 0.52)" class="triangle-float3"></path><path d="M1427.498,662.745C1477.258,660.118,1504.663,610.158,1528.181,566.228C1549.891,525.677,1566.923,480.529,1547.33,438.914C1524.836,391.138,1480.272,350.549,1427.498,352.385C1376.764,354.15,1345.281,402.041,1321.29,446.779C1299.007,488.331,1285.741,535.619,1306.549,577.929C1329.84,625.289,1374.794,665.527,1427.498,662.745" fill="rgba(58, 180, 242, 0.52)" class="triangle-float3"></path><path d="M756.772,748.817C803.571,747.396,847.574,725.651,871.447,685.374C895.798,644.291,896.7,593.514,873.598,551.717C849.715,508.507,806.143,477.816,756.772,477.903C707.537,477.99,665.773,509.78,640.658,552.128C614.953,595.47,603.752,649.329,629.369,692.723C654.652,735.55,707.062,750.326,756.772,748.817" fill="rgba(58, 180, 242, 0.52)" class="triangle-float3"></path><path d="M-42.32426207096441 467.04428071691984L16.983529776585243 613.83621662394 163.7754656836054 554.5284247763904 104.46767383605575 407.7364888693702z" fill="rgba(58, 180, 242, 0.52)" class="triangle-float3"></path></g><defs><mask id="SvgjsMask1017"><rect width="1440" height="560" fill="#ffffff"></rect></mask><style>
            @keyframes float1 {
                0%{transform: translate(0, 0)}
                50%{transform: translate(-10px, 0)}
                100%{transform: translate(0, 0)}
            }

            .triangle-float1 {
                animation: float1 5s infinite;
            }

            @keyframes float2 {
                0%{transform: translate(0, 0)}
                50%{transform: translate(-5px, -5px)}
                100%{transform: translate(0, 0)}
            }

            .triangle-float2 {
                animation: float2 4s infinite;
            }

            @keyframes float3 {
                0%{transform: translate(0, 0)}
                50%{transform: translate(0, -10px)}
                100%{transform: translate(0, 0)}
            }

            .triangle-float3 {
                animation: float3 6s infinite;
            }
        </style></defs></svg>