<svg xmlns="http://www.w3.org/2000/svg" version="1.1" xmlns:xlink="http://www.w3.org/1999/xlink" xmlns:svgjs="http://svgjs.com/svgjs" width="1440" height="560" preserveAspectRatio="none" viewBox="0 0 1440 560"><g mask="url(&quot;#SvgjsMask1024&quot;)" fill="none"><rect width="1440" height="560" x="0" y="0" fill="rgba(25, 28, 50, 1)"></rect><path d="M1125.1 421.55 a138.48 138.48 0 1 0 276.96 0 a138.48 138.48 0 1 0 -276.96 0z" fill="rgba(58, 180, 242, 0.3)" class="triangle-float3"></path><path d="M126.2046156120004 168.18412128245907L103.65394973558023 77.7383405467757-20.73938842973473 156.78722972924763z" fill="rgba(58, 180, 242, 0.3)" class="triangle-float3"></path><path d="M271.2449372205054 121.86706520552758L351.2349389683622 140.3342122171859 338.9406586119213 11.11563608957151z" fill="rgba(58, 180, 242, 0.3)" class="triangle-float3"></path><path d="M770.647914118932 443.90435905284335L861.4058221275164 476.93753609223825 894.4389991669113 386.17962808365377 803.6810911583269 353.14645104425887z" fill="rgba(58, 180, 242, 0.3)" class="triangle-float2"></path><path d="M584.1022604441134 248.04219318579948L545.8858353823728 365.66025544801033 663.5038976445837 403.87668050975094 701.7203227063243 286.2586182475401z" fill="rgba(58, 180, 242, 0.3)" class="triangle-float3"></path><path d="M105.55994176703908 479.0830480225084L-0.03894526991680891 425.2777276388921-53.84426565353317 530.8766146758479 51.754621383422716 584.6819350594643z" fill="rgba(58, 180, 242, 0.3)" class="triangle-float3"></path><path d="M1081.44 268.28 a147.76 147.76 0 1 0 295.52 0 a147.76 147.76 0 1 0 -295.52 0z" fill="rgba(58, 180, 242, 0.3)" class="triangle-float2"></path><path d="M702.12 290.58 a150.17 150.17 0 1 0 300.34 0 a150.17 150.17 0 1 0 -300.34 0z" fill="rgba(58, 180, 242, 0.3)" class="triangle-float1"></path><path d="M1009.7102902980292 488.75209183121746L962.3546061214238 581.6928550916074 1125.4435931003115 606.2559997263206z" fill="rgba(58, 180, 242, 0.3)" class="triangle-float3"></path><path d="M1292.57 207.24 a112.72 112.72 0 1 0 225.44 0 a112.72 112.72 0 1 0 -225.44 0z" fill="rgba(58, 180, 242, 0.3)" class="triangle-float3"></path></g><defs><mask id="SvgjsMask1024"><rect width="1440" height="560" fill="#ffffff"></rect></mask><style>
            @keyframes float1 {
                0%{transform: translate(0, 0)}
                50%{transform: translate(-10px, 0)}
                100%{transform: translate(0, 0)}
            }

            .triangle-float1 {
                animation: float1 5s infinite;
            }

            @keyframes float2 {
                0%{transform: translate(0, 0)}
                50%{transform: translate(-5px, -5px)}
                100%{transform: translate(0, 0)}
            }

            .triangle-float2 {
                animation: float2 4s infinite;
            }

            @keyframes float3 {
                0%{transform: translate(0, 0)}
                50%{transform: translate(0, -10px)}
                100%{transform: translate(0, 0)}
            }

            .triangle-float3 {
                animation: float3 6s infinite;
            }
        </style></defs></svg>