<svg xmlns="http://www.w3.org/2000/svg" version="1.1" xmlns:xlink="http://www.w3.org/1999/xlink" xmlns:svgjs="http://svgjs.com/svgjs" width="1440" height="560" preserveAspectRatio="none" viewBox="0 0 1440 560"><g mask="url(&quot;#SvgjsMask1004&quot;)" fill="none"><rect width="1440" height="560" x="0" y="0" fill="rgba(25, 28, 50, 1)"></rect><path d="M71.3 -45.33L136.25 -7.83L136.25 67.17L71.3 104.67L6.35 67.17L6.35 -7.83zM136.25 67.17L201.21 104.67L201.21 179.67L136.25 217.17L71.3 179.67L71.3 104.67zM136.25 517.17L201.21 554.67L201.21 629.67L136.25 667.17L71.3 629.67L71.3 554.67zM266.16 67.17L331.12 104.67L331.12 179.67L266.16 217.17L201.21 179.67L201.21 104.67zM266.16 292.17L331.12 329.67L331.12 404.67L266.16 442.17L201.21 404.67L201.21 329.67zM201.21 404.67L266.16 442.17L266.16 517.17L201.21 554.67L136.25 517.17L136.25 442.17zM331.12 -45.33L396.07 -7.83L396.07 67.17L331.12 104.67L266.16 67.17L266.16 -7.83zM331.12 179.67L396.07 217.17L396.07 292.17L331.12 329.67L266.16 292.17L266.16 217.17zM331.12 404.67L396.07 442.17L396.07 517.17L331.12 554.67L266.16 517.17L266.16 442.17zM396.07 517.17L461.02 554.67L461.02 629.67L396.07 667.17L331.12 629.67L331.12 554.67zM461.02 -45.33L525.98 -7.83L525.98 67.17L461.02 104.67L396.07 67.17L396.07 -7.83zM525.98 67.17L590.93 104.67L590.93 179.67L525.98 217.17L461.02 179.67L461.02 104.67zM461.02 179.67L525.98 217.17L525.98 292.17L461.02 329.67L396.07 292.17L396.07 217.17zM525.98 292.17L590.93 329.67L590.93 404.67L525.98 442.17L461.02 404.67L461.02 329.67zM461.02 404.67L525.98 442.17L525.98 517.17L461.02 554.67L396.07 517.17L396.07 442.17zM655.88 67.17L720.84 104.67L720.84 179.67L655.88 217.17L590.93 179.67L590.93 104.67zM655.88 517.17L720.84 554.67L720.84 629.67L655.88 667.17L590.93 629.67L590.93 554.67zM785.79 292.17L850.75 329.67L850.75 404.67L785.79 442.17L720.84 404.67L720.84 329.67zM915.7 292.17L980.65 329.67L980.65 404.67L915.7 442.17L850.74 404.67L850.74 329.67zM850.74 404.67L915.7 442.17L915.7 517.17L850.74 554.67L785.79 517.17L785.79 442.17zM915.7 517.17L980.65 554.67L980.65 629.67L915.7 667.17L850.74 629.67L850.74 554.67zM980.65 -45.33L1045.61 -7.83L1045.61 67.17L980.65 104.67L915.7 67.17L915.7 -7.83zM1045.61 517.17L1110.56 554.67L1110.56 629.67L1045.61 667.17L980.65 629.67L980.65 554.67zM1110.56 179.67L1175.51 217.17L1175.51 292.17L1110.56 329.67L1045.61 292.17L1045.61 217.17zM1175.51 292.17L1240.47 329.67L1240.47 404.67L1175.51 442.17L1110.56 404.67L1110.56 329.67zM1240.47 -45.33L1305.42 -7.83L1305.42 67.17L1240.47 104.67L1175.51 67.17L1175.51 -7.83zM1305.42 67.17L1370.37 104.67L1370.37 179.67L1305.42 217.17L1240.47 179.67L1240.47 104.67zM1305.42 292.17L1370.37 329.67L1370.37 404.67L1305.42 442.17L1240.47 404.67L1240.47 329.67zM1370.38 -45.33L1435.33 -7.83L1435.33 67.17L1370.38 104.67L1305.42 67.17L1305.42 -7.83zM1435.33 67.17L1500.28 104.67L1500.28 179.67L1435.33 217.17L1370.38 179.67L1370.38 104.67zM1370.38 179.67L1435.33 217.17L1435.33 292.17L1370.38 329.67L1305.42 292.17L1305.42 217.17zM1435.33 292.17L1500.28 329.67L1500.28 404.67L1435.33 442.17L1370.38 404.67L1370.38 329.67zM1435.33 517.17L1500.28 554.67L1500.28 629.67L1435.33 667.17L1370.38 629.67L1370.38 554.67zM1500.28 -45.33L1565.24 -7.83L1565.24 67.17L1500.28 104.67L1435.33 67.17L1435.33 -7.83zM1565.24 67.17L1630.19 104.67L1630.19 179.67L1565.24 217.17L1500.28 179.67L1500.28 104.67zM1565.24 292.17L1630.19 329.67L1630.19 404.67L1565.24 442.17L1500.28 404.67L1500.28 329.67zM1500.28 404.67L1565.24 442.17L1565.24 517.17L1500.28 554.67L1435.33 517.17L1435.33 442.17z" stroke="url(#SvgjsLinearGradient1005)" stroke-width="2"></path><path d="M63.8 -45.33 a7.5 7.5 0 1 0 15 0 a7.5 7.5 0 1 0 -15 0zM128.75 -7.83 a7.5 7.5 0 1 0 15 0 a7.5 7.5 0 1 0 -15 0zM128.75 67.17 a7.5 7.5 0 1 0 15 0 a7.5 7.5 0 1 0 -15 0zM63.8 104.67 a7.5 7.5 0 1 0 15 0 a7.5 7.5 0 1 0 -15 0zM-1.15 67.17 a7.5 7.5 0 1 0 15 0 a7.5 7.5 0 1 0 -15 0zM-1.15 -7.83 a7.5 7.5 0 1 0 15 0 a7.5 7.5 0 1 0 -15 0zM193.71 104.67 a7.5 7.5 0 1 0 15 0 a7.5 7.5 0 1 0 -15 0zM193.71 179.67 a7.5 7.5 0 1 0 15 0 a7.5 7.5 0 1 0 -15 0zM128.75 217.17 a7.5 7.5 0 1 0 15 0 a7.5 7.5 0 1 0 -15 0zM63.8 179.67 a7.5 7.5 0 1 0 15 0 a7.5 7.5 0 1 0 -15 0zM128.75 517.17 a7.5 7.5 0 1 0 15 0 a7.5 7.5 0 1 0 -15 0zM193.71 554.67 a7.5 7.5 0 1 0 15 0 a7.5 7.5 0 1 0 -15 0zM193.71 629.67 a7.5 7.5 0 1 0 15 0 a7.5 7.5 0 1 0 -15 0zM128.75 667.17 a7.5 7.5 0 1 0 15 0 a7.5 7.5 0 1 0 -15 0zM63.8 629.67 a7.5 7.5 0 1 0 15 0 a7.5 7.5 0 1 0 -15 0zM63.8 554.67 a7.5 7.5 0 1 0 15 0 a7.5 7.5 0 1 0 -15 0zM258.66 67.17 a7.5 7.5 0 1 0 15 0 a7.5 7.5 0 1 0 -15 0zM323.62 104.67 a7.5 7.5 0 1 0 15 0 a7.5 7.5 0 1 0 -15 0zM323.62 179.67 a7.5 7.5 0 1 0 15 0 a7.5 7.5 0 1 0 -15 0zM258.66 217.17 a7.5 7.5 0 1 0 15 0 a7.5 7.5 0 1 0 -15 0zM258.66 292.17 a7.5 7.5 0 1 0 15 0 a7.5 7.5 0 1 0 -15 0zM323.62 329.67 a7.5 7.5 0 1 0 15 0 a7.5 7.5 0 1 0 -15 0zM323.62 404.67 a7.5 7.5 0 1 0 15 0 a7.5 7.5 0 1 0 -15 0zM258.66 442.17 a7.5 7.5 0 1 0 15 0 a7.5 7.5 0 1 0 -15 0zM193.71 404.67 a7.5 7.5 0 1 0 15 0 a7.5 7.5 0 1 0 -15 0zM193.71 329.67 a7.5 7.5 0 1 0 15 0 a7.5 7.5 0 1 0 -15 0zM258.66 517.17 a7.5 7.5 0 1 0 15 0 a7.5 7.5 0 1 0 -15 0zM128.75 442.17 a7.5 7.5 0 1 0 15 0 a7.5 7.5 0 1 0 -15 0zM323.62 -45.33 a7.5 7.5 0 1 0 15 0 a7.5 7.5 0 1 0 -15 0zM388.57 -7.83 a7.5 7.5 0 1 0 15 0 a7.5 7.5 0 1 0 -15 0zM388.57 67.17 a7.5 7.5 0 1 0 15 0 a7.5 7.5 0 1 0 -15 0zM258.66 -7.83 a7.5 7.5 0 1 0 15 0 a7.5 7.5 0 1 0 -15 0zM388.57 217.17 a7.5 7.5 0 1 0 15 0 a7.5 7.5 0 1 0 -15 0zM388.57 292.17 a7.5 7.5 0 1 0 15 0 a7.5 7.5 0 1 0 -15 0zM388.57 442.17 a7.5 7.5 0 1 0 15 0 a7.5 7.5 0 1 0 -15 0zM388.57 517.17 a7.5 7.5 0 1 0 15 0 a7.5 7.5 0 1 0 -15 0zM323.62 554.67 a7.5 7.5 0 1 0 15 0 a7.5 7.5 0 1 0 -15 0zM453.52 554.67 a7.5 7.5 0 1 0 15 0 a7.5 7.5 0 1 0 -15 0zM453.52 629.67 a7.5 7.5 0 1 0 15 0 a7.5 7.5 0 1 0 -15 0zM388.57 667.17 a7.5 7.5 0 1 0 15 0 a7.5 7.5 0 1 0 -15 0zM323.62 629.67 a7.5 7.5 0 1 0 15 0 a7.5 7.5 0 1 0 -15 0zM453.52 -45.33 a7.5 7.5 0 1 0 15 0 a7.5 7.5 0 1 0 -15 0zM518.48 -7.83 a7.5 7.5 0 1 0 15 0 a7.5 7.5 0 1 0 -15 0zM518.48 67.17 a7.5 7.5 0 1 0 15 0 a7.5 7.5 0 1 0 -15 0zM453.52 104.67 a7.5 7.5 0 1 0 15 0 a7.5 7.5 0 1 0 -15 0zM583.43 104.67 a7.5 7.5 0 1 0 15 0 a7.5 7.5 0 1 0 -15 0zM583.43 179.67 a7.5 7.5 0 1 0 15 0 a7.5 7.5 0 1 0 -15 0zM518.48 217.17 a7.5 7.5 0 1 0 15 0 a7.5 7.5 0 1 0 -15 0zM453.52 179.67 a7.5 7.5 0 1 0 15 0 a7.5 7.5 0 1 0 -15 0zM518.48 292.17 a7.5 7.5 0 1 0 15 0 a7.5 7.5 0 1 0 -15 0zM453.52 329.67 a7.5 7.5 0 1 0 15 0 a7.5 7.5 0 1 0 -15 0zM583.43 329.67 a7.5 7.5 0 1 0 15 0 a7.5 7.5 0 1 0 -15 0zM583.43 404.67 a7.5 7.5 0 1 0 15 0 a7.5 7.5 0 1 0 -15 0zM518.48 442.17 a7.5 7.5 0 1 0 15 0 a7.5 7.5 0 1 0 -15 0zM453.52 404.67 a7.5 7.5 0 1 0 15 0 a7.5 7.5 0 1 0 -15 0zM518.48 517.17 a7.5 7.5 0 1 0 15 0 a7.5 7.5 0 1 0 -15 0zM648.38 67.17 a7.5 7.5 0 1 0 15 0 a7.5 7.5 0 1 0 -15 0zM713.34 104.67 a7.5 7.5 0 1 0 15 0 a7.5 7.5 0 1 0 -15 0zM713.34 179.67 a7.5 7.5 0 1 0 15 0 a7.5 7.5 0 1 0 -15 0zM648.38 217.17 a7.5 7.5 0 1 0 15 0 a7.5 7.5 0 1 0 -15 0zM648.38 517.17 a7.5 7.5 0 1 0 15 0 a7.5 7.5 0 1 0 -15 0zM713.34 554.67 a7.5 7.5 0 1 0 15 0 a7.5 7.5 0 1 0 -15 0zM713.34 629.67 a7.5 7.5 0 1 0 15 0 a7.5 7.5 0 1 0 -15 0zM648.38 667.17 a7.5 7.5 0 1 0 15 0 a7.5 7.5 0 1 0 -15 0zM583.43 629.67 a7.5 7.5 0 1 0 15 0 a7.5 7.5 0 1 0 -15 0zM583.43 554.67 a7.5 7.5 0 1 0 15 0 a7.5 7.5 0 1 0 -15 0zM778.29 292.17 a7.5 7.5 0 1 0 15 0 a7.5 7.5 0 1 0 -15 0zM843.25 329.67 a7.5 7.5 0 1 0 15 0 a7.5 7.5 0 1 0 -15 0zM843.25 404.67 a7.5 7.5 0 1 0 15 0 a7.5 7.5 0 1 0 -15 0zM778.29 442.17 a7.5 7.5 0 1 0 15 0 a7.5 7.5 0 1 0 -15 0zM713.34 404.67 a7.5 7.5 0 1 0 15 0 a7.5 7.5 0 1 0 -15 0zM713.34 329.67 a7.5 7.5 0 1 0 15 0 a7.5 7.5 0 1 0 -15 0zM908.2 292.17 a7.5 7.5 0 1 0 15 0 a7.5 7.5 0 1 0 -15 0zM973.15 329.67 a7.5 7.5 0 1 0 15 0 a7.5 7.5 0 1 0 -15 0zM973.15 404.67 a7.5 7.5 0 1 0 15 0 a7.5 7.5 0 1 0 -15 0zM908.2 442.17 a7.5 7.5 0 1 0 15 0 a7.5 7.5 0 1 0 -15 0zM843.24 404.67 a7.5 7.5 0 1 0 15 0 a7.5 7.5 0 1 0 -15 0zM843.24 329.67 a7.5 7.5 0 1 0 15 0 a7.5 7.5 0 1 0 -15 0zM908.2 517.17 a7.5 7.5 0 1 0 15 0 a7.5 7.5 0 1 0 -15 0zM843.24 554.67 a7.5 7.5 0 1 0 15 0 a7.5 7.5 0 1 0 -15 0zM778.29 517.17 a7.5 7.5 0 1 0 15 0 a7.5 7.5 0 1 0 -15 0zM973.15 554.67 a7.5 7.5 0 1 0 15 0 a7.5 7.5 0 1 0 -15 0zM973.15 629.67 a7.5 7.5 0 1 0 15 0 a7.5 7.5 0 1 0 -15 0zM908.2 667.17 a7.5 7.5 0 1 0 15 0 a7.5 7.5 0 1 0 -15 0zM843.24 629.67 a7.5 7.5 0 1 0 15 0 a7.5 7.5 0 1 0 -15 0zM973.15 -45.33 a7.5 7.5 0 1 0 15 0 a7.5 7.5 0 1 0 -15 0zM1038.11 -7.83 a7.5 7.5 0 1 0 15 0 a7.5 7.5 0 1 0 -15 0zM1038.11 67.17 a7.5 7.5 0 1 0 15 0 a7.5 7.5 0 1 0 -15 0zM973.15 104.67 a7.5 7.5 0 1 0 15 0 a7.5 7.5 0 1 0 -15 0zM908.2 67.17 a7.5 7.5 0 1 0 15 0 a7.5 7.5 0 1 0 -15 0zM908.2 -7.83 a7.5 7.5 0 1 0 15 0 a7.5 7.5 0 1 0 -15 0zM1038.11 517.17 a7.5 7.5 0 1 0 15 0 a7.5 7.5 0 1 0 -15 0zM1103.06 554.67 a7.5 7.5 0 1 0 15 0 a7.5 7.5 0 1 0 -15 0zM1103.06 629.67 a7.5 7.5 0 1 0 15 0 a7.5 7.5 0 1 0 -15 0zM1038.11 667.17 a7.5 7.5 0 1 0 15 0 a7.5 7.5 0 1 0 -15 0zM1103.06 179.67 a7.5 7.5 0 1 0 15 0 a7.5 7.5 0 1 0 -15 0zM1168.01 217.17 a7.5 7.5 0 1 0 15 0 a7.5 7.5 0 1 0 -15 0zM1168.01 292.17 a7.5 7.5 0 1 0 15 0 a7.5 7.5 0 1 0 -15 0zM1103.06 329.67 a7.5 7.5 0 1 0 15 0 a7.5 7.5 0 1 0 -15 0zM1038.11 292.17 a7.5 7.5 0 1 0 15 0 a7.5 7.5 0 1 0 -15 0zM1038.11 217.17 a7.5 7.5 0 1 0 15 0 a7.5 7.5 0 1 0 -15 0zM1232.97 329.67 a7.5 7.5 0 1 0 15 0 a7.5 7.5 0 1 0 -15 0zM1232.97 404.67 a7.5 7.5 0 1 0 15 0 a7.5 7.5 0 1 0 -15 0zM1168.01 442.17 a7.5 7.5 0 1 0 15 0 a7.5 7.5 0 1 0 -15 0zM1103.06 404.67 a7.5 7.5 0 1 0 15 0 a7.5 7.5 0 1 0 -15 0zM1232.97 -45.33 a7.5 7.5 0 1 0 15 0 a7.5 7.5 0 1 0 -15 0zM1297.92 -7.83 a7.5 7.5 0 1 0 15 0 a7.5 7.5 0 1 0 -15 0zM1297.92 67.17 a7.5 7.5 0 1 0 15 0 a7.5 7.5 0 1 0 -15 0zM1232.97 104.67 a7.5 7.5 0 1 0 15 0 a7.5 7.5 0 1 0 -15 0zM1168.01 67.17 a7.5 7.5 0 1 0 15 0 a7.5 7.5 0 1 0 -15 0zM1168.01 -7.83 a7.5 7.5 0 1 0 15 0 a7.5 7.5 0 1 0 -15 0zM1362.87 104.67 a7.5 7.5 0 1 0 15 0 a7.5 7.5 0 1 0 -15 0zM1362.87 179.67 a7.5 7.5 0 1 0 15 0 a7.5 7.5 0 1 0 -15 0zM1297.92 217.17 a7.5 7.5 0 1 0 15 0 a7.5 7.5 0 1 0 -15 0zM1232.97 179.67 a7.5 7.5 0 1 0 15 0 a7.5 7.5 0 1 0 -15 0zM1297.92 292.17 a7.5 7.5 0 1 0 15 0 a7.5 7.5 0 1 0 -15 0zM1362.87 329.67 a7.5 7.5 0 1 0 15 0 a7.5 7.5 0 1 0 -15 0zM1362.87 404.67 a7.5 7.5 0 1 0 15 0 a7.5 7.5 0 1 0 -15 0zM1297.92 442.17 a7.5 7.5 0 1 0 15 0 a7.5 7.5 0 1 0 -15 0zM1362.88 -45.33 a7.5 7.5 0 1 0 15 0 a7.5 7.5 0 1 0 -15 0zM1427.83 -7.83 a7.5 7.5 0 1 0 15 0 a7.5 7.5 0 1 0 -15 0zM1427.83 67.17 a7.5 7.5 0 1 0 15 0 a7.5 7.5 0 1 0 -15 0zM1362.88 104.67 a7.5 7.5 0 1 0 15 0 a7.5 7.5 0 1 0 -15 0zM1492.78 104.67 a7.5 7.5 0 1 0 15 0 a7.5 7.5 0 1 0 -15 0zM1492.78 179.67 a7.5 7.5 0 1 0 15 0 a7.5 7.5 0 1 0 -15 0zM1427.83 217.17 a7.5 7.5 0 1 0 15 0 a7.5 7.5 0 1 0 -15 0zM1362.88 179.67 a7.5 7.5 0 1 0 15 0 a7.5 7.5 0 1 0 -15 0zM1427.83 292.17 a7.5 7.5 0 1 0 15 0 a7.5 7.5 0 1 0 -15 0zM1362.88 329.67 a7.5 7.5 0 1 0 15 0 a7.5 7.5 0 1 0 -15 0zM1492.78 329.67 a7.5 7.5 0 1 0 15 0 a7.5 7.5 0 1 0 -15 0zM1492.78 404.67 a7.5 7.5 0 1 0 15 0 a7.5 7.5 0 1 0 -15 0zM1427.83 442.17 a7.5 7.5 0 1 0 15 0 a7.5 7.5 0 1 0 -15 0zM1362.88 404.67 a7.5 7.5 0 1 0 15 0 a7.5 7.5 0 1 0 -15 0zM1427.83 517.17 a7.5 7.5 0 1 0 15 0 a7.5 7.5 0 1 0 -15 0zM1492.78 554.67 a7.5 7.5 0 1 0 15 0 a7.5 7.5 0 1 0 -15 0zM1492.78 629.67 a7.5 7.5 0 1 0 15 0 a7.5 7.5 0 1 0 -15 0zM1427.83 667.17 a7.5 7.5 0 1 0 15 0 a7.5 7.5 0 1 0 -15 0zM1362.88 629.67 a7.5 7.5 0 1 0 15 0 a7.5 7.5 0 1 0 -15 0zM1362.88 554.67 a7.5 7.5 0 1 0 15 0 a7.5 7.5 0 1 0 -15 0zM1492.78 -45.33 a7.5 7.5 0 1 0 15 0 a7.5 7.5 0 1 0 -15 0zM1557.74 -7.83 a7.5 7.5 0 1 0 15 0 a7.5 7.5 0 1 0 -15 0zM1557.74 67.17 a7.5 7.5 0 1 0 15 0 a7.5 7.5 0 1 0 -15 0zM1622.69 104.67 a7.5 7.5 0 1 0 15 0 a7.5 7.5 0 1 0 -15 0zM1622.69 179.67 a7.5 7.5 0 1 0 15 0 a7.5 7.5 0 1 0 -15 0zM1557.74 217.17 a7.5 7.5 0 1 0 15 0 a7.5 7.5 0 1 0 -15 0zM1557.74 292.17 a7.5 7.5 0 1 0 15 0 a7.5 7.5 0 1 0 -15 0zM1622.69 329.67 a7.5 7.5 0 1 0 15 0 a7.5 7.5 0 1 0 -15 0zM1622.69 404.67 a7.5 7.5 0 1 0 15 0 a7.5 7.5 0 1 0 -15 0zM1557.74 442.17 a7.5 7.5 0 1 0 15 0 a7.5 7.5 0 1 0 -15 0zM1557.74 517.17 a7.5 7.5 0 1 0 15 0 a7.5 7.5 0 1 0 -15 0z" fill="url(#SvgjsLinearGradient1005)"></path><path d="M23.07 -45.75L66.37 -20.75L66.37 29.25L23.07 54.25L-20.23 29.25L-20.23 -20.75zM23.07 254.25L66.37 279.25L66.37 329.25L23.07 354.25L-20.23 329.25L-20.23 279.25zM109.68 -45.75L152.98 -20.75L152.98 29.25L109.68 54.25L66.37 29.25L66.37 -20.75zM152.98 29.25L196.28 54.25L196.28 104.25L152.98 129.25L109.68 104.25L109.68 54.25zM152.98 329.25L196.28 354.25L196.28 404.25L152.98 429.25L109.68 404.25L109.68 354.25zM196.28 -45.75L239.58 -20.75L239.58 29.25L196.28 54.25L152.98 29.25L152.98 -20.75zM196.28 104.25L239.58 129.25L239.58 179.25L196.28 204.25L152.98 179.25L152.98 129.25zM196.28 254.25L239.58 279.25L239.58 329.25L196.28 354.25L152.98 329.25L152.98 279.25zM282.88 254.25L326.19 279.25L326.19 329.25L282.88 354.25L239.58 329.25L239.58 279.25zM412.79 179.25L456.1 204.25L456.1 254.25L412.79 279.25L369.49 254.25L369.49 204.25zM412.79 479.25L456.1 504.25L456.1 554.25L412.79 579.25L369.49 554.25L369.49 504.25zM542.7 -45.75L586 -20.75L586 29.25L542.7 54.25L499.4 29.25L499.4 -20.75zM542.7 254.25L586 279.25L586 329.25L542.7 354.25L499.4 329.25L499.4 279.25zM542.7 404.25L586 429.25L586 479.25L542.7 504.25L499.4 479.25L499.4 429.25zM629.31 104.25L672.61 129.25L672.61 179.25L629.31 204.25L586 179.25L586 129.25zM759.21 29.25L802.52 54.25L802.52 104.25L759.21 129.25L715.91 104.25L715.91 54.25zM715.91 254.25L759.21 279.25L759.21 329.25L715.91 354.25L672.61 329.25L672.61 279.25zM845.82 29.25L889.12 54.25L889.12 104.25L845.82 129.25L802.52 104.25L802.52 54.25zM845.82 479.25L889.12 504.25L889.12 554.25L845.82 579.25L802.52 554.25L802.52 504.25zM889.12 104.25L932.42 129.25L932.42 179.25L889.12 204.25L845.82 179.25L845.82 129.25zM932.42 179.25L975.73 204.25L975.73 254.25L932.42 279.25L889.12 254.25L889.12 204.25zM975.73 104.25L1019.03 129.25L1019.03 179.25L975.73 204.25L932.42 179.25L932.42 129.25zM1235.54 104.25L1278.84 129.25L1278.84 179.25L1235.54 204.25L1192.24 179.25L1192.24 129.25zM1278.84 179.25L1322.14 204.25L1322.14 254.25L1278.84 279.25L1235.54 254.25L1235.54 204.25zM1365.45 179.25L1408.75 204.25L1408.75 254.25L1365.45 279.25L1322.14 254.25L1322.14 204.25zM1452.05 179.25L1495.36 204.25L1495.36 254.25L1452.05 279.25L1408.75 254.25L1408.75 204.25zM1408.75 254.25L1452.05 279.25L1452.05 329.25L1408.75 354.25L1365.45 329.25L1365.45 279.25zM1452.05 329.25L1495.36 354.25L1495.36 404.25L1452.05 429.25L1408.75 404.25L1408.75 354.25zM1408.75 404.25L1452.05 429.25L1452.05 479.25L1408.75 504.25L1365.45 479.25L1365.45 429.25z" stroke="rgba(0, 0, 0, 0)" stroke-width="2"></path></g><defs><mask id="SvgjsMask1004"><rect width="1440" height="560" fill="#ffffff"></rect></mask><linearGradient x1="220.03199999999998" y1="-220.02399999999997" x2="1219.9679999999998" y2="780.024" gradientUnits="userSpaceOnUse" id="SvgjsLinearGradient1005"><stop stop-color="rgba(158, 0, 129, 1)" offset="0"></stop><stop stop-color="#03305d" offset="1"></stop></linearGradient></defs></svg>