<svg xmlns="http://www.w3.org/2000/svg" version="1.1" xmlns:xlink="http://www.w3.org/1999/xlink" xmlns:svgjs="http://svgjs.com/svgjs" width="1440" height="560" preserveAspectRatio="none" viewBox="0 0 1440 560"><g mask="url(&quot;#SvgjsMask1344&quot;)" fill="none"><rect width="1440" height="560" x="0" y="0" fill="rgba(25, 28, 50, 1)"></rect><path d="M173.94 104.54L309.91 183.04L309.91 340.04L173.94 418.54L37.97 340.04L37.97 183.04zM309.91 340.04L445.88 418.54L445.88 575.54L309.91 654.04L173.94 575.54L173.94 418.54zM717.82 104.54L853.79 183.04L853.79 340.04L717.82 418.54L581.85 340.04L581.85 183.04zM853.79 340.04L989.76 418.54L989.76 575.54L853.79 654.04L717.82 575.54L717.82 418.54zM1261.7 104.54L1397.67 183.04L1397.67 340.04L1261.7 418.54L1125.73 340.04L1125.73 183.04zM1125.73 340.04L1261.7 418.54L1261.7 575.54L1125.73 654.04L989.76 575.54L989.76 418.54z" stroke="#03305d" stroke-width="2"></path><path d="M158.24 104.54 a15.7 15.7 0 1 0 31.4 0 a15.7 15.7 0 1 0 -31.4 0zM294.21 183.04 a15.7 15.7 0 1 0 31.4 0 a15.7 15.7 0 1 0 -31.4 0zM294.21 340.04 a15.7 15.7 0 1 0 31.4 0 a15.7 15.7 0 1 0 -31.4 0zM158.24 418.54 a15.7 15.7 0 1 0 31.4 0 a15.7 15.7 0 1 0 -31.4 0zM22.27 340.04 a15.7 15.7 0 1 0 31.4 0 a15.7 15.7 0 1 0 -31.4 0zM22.27 183.04 a15.7 15.7 0 1 0 31.4 0 a15.7 15.7 0 1 0 -31.4 0zM430.18 418.54 a15.7 15.7 0 1 0 31.4 0 a15.7 15.7 0 1 0 -31.4 0zM430.18 575.54 a15.7 15.7 0 1 0 31.4 0 a15.7 15.7 0 1 0 -31.4 0zM294.21 654.04 a15.7 15.7 0 1 0 31.4 0 a15.7 15.7 0 1 0 -31.4 0zM158.24 575.54 a15.7 15.7 0 1 0 31.4 0 a15.7 15.7 0 1 0 -31.4 0zM702.12 104.54 a15.7 15.7 0 1 0 31.4 0 a15.7 15.7 0 1 0 -31.4 0zM838.09 183.04 a15.7 15.7 0 1 0 31.4 0 a15.7 15.7 0 1 0 -31.4 0zM838.09 340.04 a15.7 15.7 0 1 0 31.4 0 a15.7 15.7 0 1 0 -31.4 0zM702.12 418.54 a15.7 15.7 0 1 0 31.4 0 a15.7 15.7 0 1 0 -31.4 0zM566.15 340.04 a15.7 15.7 0 1 0 31.4 0 a15.7 15.7 0 1 0 -31.4 0zM566.15 183.04 a15.7 15.7 0 1 0 31.4 0 a15.7 15.7 0 1 0 -31.4 0zM974.06 418.54 a15.7 15.7 0 1 0 31.4 0 a15.7 15.7 0 1 0 -31.4 0zM974.06 575.54 a15.7 15.7 0 1 0 31.4 0 a15.7 15.7 0 1 0 -31.4 0zM838.09 654.04 a15.7 15.7 0 1 0 31.4 0 a15.7 15.7 0 1 0 -31.4 0zM702.12 575.54 a15.7 15.7 0 1 0 31.4 0 a15.7 15.7 0 1 0 -31.4 0zM1246 104.54 a15.7 15.7 0 1 0 31.4 0 a15.7 15.7 0 1 0 -31.4 0zM1381.97 183.04 a15.7 15.7 0 1 0 31.4 0 a15.7 15.7 0 1 0 -31.4 0zM1381.97 340.04 a15.7 15.7 0 1 0 31.4 0 a15.7 15.7 0 1 0 -31.4 0zM1246 418.54 a15.7 15.7 0 1 0 31.4 0 a15.7 15.7 0 1 0 -31.4 0zM1110.03 340.04 a15.7 15.7 0 1 0 31.4 0 a15.7 15.7 0 1 0 -31.4 0zM1110.03 183.04 a15.7 15.7 0 1 0 31.4 0 a15.7 15.7 0 1 0 -31.4 0zM1246 575.54 a15.7 15.7 0 1 0 31.4 0 a15.7 15.7 0 1 0 -31.4 0zM1110.03 654.04 a15.7 15.7 0 1 0 31.4 0 a15.7 15.7 0 1 0 -31.4 0z" fill="#03305d"></path><path d="M93.11 -45.97L184.05 6.53L184.05 111.53L93.11 164.03L2.17 111.53L2.17 6.53zM93.11 269.03L184.05 321.53L184.05 426.53L93.11 479.03L2.17 426.53L2.17 321.53zM93.11 584.03L184.05 636.53L184.05 741.53L93.11 794.03L2.17 741.53L2.17 636.53zM365.92 111.53L456.85 164.03L456.85 269.03L365.92 321.53L274.98 269.03L274.98 164.03zM456.85 -45.97L547.79 6.53L547.79 111.53L456.85 164.03L365.92 111.53L365.92 6.53zM547.79 111.53L638.72 164.03L638.72 269.03L547.79 321.53L456.85 269.03L456.85 164.03zM638.72 -45.97L729.66 6.53L729.66 111.53L638.72 164.03L547.79 111.53L547.79 6.53zM638.72 269.03L729.66 321.53L729.66 426.53L638.72 479.03L547.79 426.53L547.79 321.53zM820.59 -45.97L911.53 6.53L911.53 111.53L820.59 164.03L729.66 111.53L729.66 6.53zM1002.46 -45.97L1093.4 6.53L1093.4 111.53L1002.46 164.03L911.53 111.53L911.53 6.53zM1002.46 269.03L1093.4 321.53L1093.4 426.53L1002.46 479.03L911.53 426.53L911.53 321.53zM1093.4 426.53L1184.33 479.03L1184.33 584.03L1093.4 636.53L1002.46 584.03L1002.46 479.03zM1002.46 584.03L1093.4 636.53L1093.4 741.53L1002.46 794.03L911.53 741.53L911.53 636.53zM1184.33 269.03L1275.27 321.53L1275.27 426.53L1184.33 479.03L1093.4 426.53L1093.4 321.53zM1184.33 584.03L1275.27 636.53L1275.27 741.53L1184.33 794.03L1093.4 741.53L1093.4 636.53zM1366.2 -45.97L1457.14 6.53L1457.14 111.53L1366.2 164.03L1275.27 111.53L1275.27 6.53zM1457.14 111.53L1548.07 164.03L1548.07 269.03L1457.14 321.53L1366.2 269.03L1366.2 164.03zM1366.2 269.03L1457.14 321.53L1457.14 426.53L1366.2 479.03L1275.27 426.53L1275.27 321.53zM1457.14 426.53L1548.07 479.03L1548.07 584.03L1457.14 636.53L1366.2 584.03L1366.2 479.03z" stroke="url(#SvgjsLinearGradient1345)" stroke-width="2"></path></g><defs><mask id="SvgjsMask1344"><rect width="1440" height="560" fill="#ffffff"></rect></mask><linearGradient x1="220.03199999999998" y1="-220.02399999999997" x2="1219.9679999999998" y2="780.024" gradientUnits="userSpaceOnUse" id="SvgjsLinearGradient1345"><stop stop-color="#0e2a47" offset="0"></stop><stop stop-color="rgba(188, 6, 216, 1)" offset="1"></stop></linearGradient></defs></svg>