<svg xmlns="http://www.w3.org/2000/svg" version="1.1" xmlns:xlink="http://www.w3.org/1999/xlink" xmlns:svgjs="http://svgjs.com/svgjs" width="1440" height="560" preserveAspectRatio="none" viewBox="0 0 1440 560"><g mask="url(&quot;#SvgjsMask1004&quot;)" fill="none"><rect width="1440" height="560" x="0" y="0" fill="rgba(25, 28, 50, 1)"></rect><path d="M-64.53 396.53L-64.53 396.53" stroke="rgba(19, 46, 101, 0.54)" stroke-width="1.5"></path><path d="M-64.53 396.53L-94.62 538.56" stroke="rgba(19, 46, 101, 0.54)" stroke-width="1.5"></path><path d="M-64.53 396.53L78.59 339.99" stroke="rgba(19, 46, 101, 0.54)" stroke-width="1.5"></path><path d="M-64.53 396.53L42.85 515" stroke="rgba(19, 46, 101, 0.54)" stroke-width="1.5"></path><path d="M-64.53 396.53L-69.27 655.34" stroke="rgba(19, 46, 101, 0.54)" stroke-width="1.5"></path><path d="M-94.62 538.56L-94.62 538.56" stroke="rgba(19, 46, 101, 0.54)" stroke-width="1.5"></path><path d="M-94.62 538.56L-69.27 655.34" stroke="rgba(19, 46, 101, 0.54)" stroke-width="1.5"></path><path d="M-94.62 538.56L42.85 515" stroke="rgba(19, 46, 101, 0.54)" stroke-width="1.5"></path><path d="M-69.27 655.34L-69.27 655.34" stroke="rgba(19, 46, 101, 0.54)" stroke-width="1.5"></path><path d="M-69.27 655.34L66.81 700.58" stroke="rgba(19, 46, 101, 0.54)" stroke-width="1.5"></path><path d="M-69.27 655.34L42.85 515" stroke="rgba(19, 46, 101, 0.54)" stroke-width="1.5"></path><path d="M-69.27 655.34L238.5 700.75" stroke="rgba(19, 46, 101, 0.54)" stroke-width="1.5"></path><path d="M78.59 339.99L78.59 339.99" stroke="rgba(19, 46, 101, 0.54)" stroke-width="1.5"></path><path d="M42.85 515L42.85 515" stroke="rgba(19, 46, 101, 0.54)" stroke-width="1.5"></path><path d="M42.85 515L78.59 339.99" stroke="rgba(19, 46, 101, 0.54)" stroke-width="1.5"></path><path d="M66.81 700.58L66.81 700.58" stroke="rgba(19, 46, 101, 0.54)" stroke-width="1.5"></path><path d="M66.81 700.58L238.5 700.75" stroke="rgba(19, 46, 101, 0.54)" stroke-width="1.5"></path><path d="M66.81 700.58L42.85 515" stroke="rgba(19, 46, 101, 0.54)" stroke-width="1.5"></path><path d="M66.81 700.58L-94.62 538.56" stroke="rgba(19, 46, 101, 0.54)" stroke-width="1.5"></path><path d="M66.81 700.58L260.45 551.93" stroke="rgba(19, 46, 101, 0.54)" stroke-width="1.5"></path><path d="M245.59 351.72L245.59 351.72" stroke="rgba(19, 46, 101, 0.54)" stroke-width="1.5"></path><path d="M245.59 351.72L338.05 369.39" stroke="rgba(19, 46, 101, 0.54)" stroke-width="1.5"></path><path d="M245.59 351.72L78.59 339.99" stroke="rgba(19, 46, 101, 0.54)" stroke-width="1.5"></path><path d="M245.59 351.72L260.45 551.93" stroke="rgba(19, 46, 101, 0.54)" stroke-width="1.5"></path><path d="M245.59 351.72L396.62 511.37" stroke="rgba(19, 46, 101, 0.54)" stroke-width="1.5"></path><path d="M245.59 351.72L42.85 515" stroke="rgba(19, 46, 101, 0.54)" stroke-width="1.5"></path><path d="M260.45 551.93L260.45 551.93" stroke="rgba(19, 46, 101, 0.54)" stroke-width="1.5"></path><path d="M260.45 551.93L396.62 511.37" stroke="rgba(19, 46, 101, 0.54)" stroke-width="1.5"></path><path d="M260.45 551.93L238.5 700.75" stroke="rgba(19, 46, 101, 0.54)" stroke-width="1.5"></path><path d="M260.45 551.93L394.07 672.48" stroke="rgba(19, 46, 101, 0.54)" stroke-width="1.5"></path><path d="M260.45 551.93L338.05 369.39" stroke="rgba(19, 46, 101, 0.54)" stroke-width="1.5"></path><path d="M260.45 551.93L42.85 515" stroke="rgba(19, 46, 101, 0.54)" stroke-width="1.5"></path><path d="M238.5 700.75L238.5 700.75" stroke="rgba(19, 46, 101, 0.54)" stroke-width="1.5"></path><path d="M238.5 700.75L394.07 672.48" stroke="rgba(19, 46, 101, 0.54)" stroke-width="1.5"></path><path d="M238.5 700.75L396.62 511.37" stroke="rgba(19, 46, 101, 0.54)" stroke-width="1.5"></path><path d="M238.5 700.75L497.82 709.59" stroke="rgba(19, 46, 101, 0.54)" stroke-width="1.5"></path><path d="M338.05 369.39L338.05 369.39" stroke="rgba(19, 46, 101, 0.54)" stroke-width="1.5"></path><path d="M396.62 511.37L396.62 511.37" stroke="rgba(19, 46, 101, 0.54)" stroke-width="1.5"></path><path d="M396.62 511.37L547.84 493.94" stroke="rgba(19, 46, 101, 0.54)" stroke-width="1.5"></path><path d="M396.62 511.37L338.05 369.39" stroke="rgba(19, 46, 101, 0.54)" stroke-width="1.5"></path><path d="M396.62 511.37L394.07 672.48" stroke="rgba(19, 46, 101, 0.54)" stroke-width="1.5"></path><path d="M394.07 672.48L394.07 672.48" stroke="rgba(19, 46, 101, 0.54)" stroke-width="1.5"></path><path d="M394.07 672.48L497.82 709.59" stroke="rgba(19, 46, 101, 0.54)" stroke-width="1.5"></path><path d="M538.41 356.85L538.41 356.85" stroke="rgba(19, 46, 101, 0.54)" stroke-width="1.5"></path><path d="M538.41 356.85L547.84 493.94" stroke="rgba(19, 46, 101, 0.54)" stroke-width="1.5"></path><path d="M538.41 356.85L656.49 240.22" stroke="rgba(19, 46, 101, 0.54)" stroke-width="1.5"></path><path d="M538.41 356.85L706.57 385.58" stroke="rgba(19, 46, 101, 0.54)" stroke-width="1.5"></path><path d="M538.41 356.85L338.05 369.39" stroke="rgba(19, 46, 101, 0.54)" stroke-width="1.5"></path><path d="M538.41 356.85L396.62 511.37" stroke="rgba(19, 46, 101, 0.54)" stroke-width="1.5"></path><path d="M538.41 356.85L683.73 545.29" stroke="rgba(19, 46, 101, 0.54)" stroke-width="1.5"></path><path d="M547.84 493.94L547.84 493.94" stroke="rgba(19, 46, 101, 0.54)" stroke-width="1.5"></path><path d="M547.84 493.94L683.73 545.29" stroke="rgba(19, 46, 101, 0.54)" stroke-width="1.5"></path><path d="M547.84 493.94L706.57 385.58" stroke="rgba(19, 46, 101, 0.54)" stroke-width="1.5"></path><path d="M547.84 493.94L642.26 689.43" stroke="rgba(19, 46, 101, 0.54)" stroke-width="1.5"></path><path d="M497.82 709.59L497.82 709.59" stroke="rgba(19, 46, 101, 0.54)" stroke-width="1.5"></path><path d="M497.82 709.59L642.26 689.43" stroke="rgba(19, 46, 101, 0.54)" stroke-width="1.5"></path><path d="M497.82 709.59L547.84 493.94" stroke="rgba(19, 46, 101, 0.54)" stroke-width="1.5"></path><path d="M497.82 709.59L396.62 511.37" stroke="rgba(19, 46, 101, 0.54)" stroke-width="1.5"></path><path d="M656.49 240.22L656.49 240.22" stroke="rgba(19, 46, 101, 0.54)" stroke-width="1.5"></path><path d="M656.49 240.22L706.57 385.58" stroke="rgba(19, 46, 101, 0.54)" stroke-width="1.5"></path><path d="M706.57 385.58L706.57 385.58" stroke="rgba(19, 46, 101, 0.54)" stroke-width="1.5"></path><path d="M706.57 385.58L815.8 407.78" stroke="rgba(19, 46, 101, 0.54)" stroke-width="1.5"></path><path d="M706.57 385.58L683.73 545.29" stroke="rgba(19, 46, 101, 0.54)" stroke-width="1.5"></path><path d="M683.73 545.29L683.73 545.29" stroke="rgba(19, 46, 101, 0.54)" stroke-width="1.5"></path><path d="M683.73 545.29L642.26 689.43" stroke="rgba(19, 46, 101, 0.54)" stroke-width="1.5"></path><path d="M642.26 689.43L642.26 689.43" stroke="rgba(19, 46, 101, 0.54)" stroke-width="1.5"></path><path d="M642.26 689.43L846.85 556.25" stroke="rgba(19, 46, 101, 0.54)" stroke-width="1.5"></path><path d="M642.26 689.43L394.07 672.48" stroke="rgba(19, 46, 101, 0.54)" stroke-width="1.5"></path><path d="M857.59 208.73L857.59 208.73" stroke="rgba(19, 46, 101, 0.54)" stroke-width="1.5"></path><path d="M857.59 208.73L973.23 216.11" stroke="rgba(19, 46, 101, 0.54)" stroke-width="1.5"></path><path d="M857.59 208.73L964.14 39.55" stroke="rgba(19, 46, 101, 0.54)" stroke-width="1.5"></path><path d="M857.59 208.73L815.8 407.78" stroke="rgba(19, 46, 101, 0.54)" stroke-width="1.5"></path><path d="M815.8 407.78L815.8 407.78" stroke="rgba(19, 46, 101, 0.54)" stroke-width="1.5"></path><path d="M815.8 407.78L846.85 556.25" stroke="rgba(19, 46, 101, 0.54)" stroke-width="1.5"></path><path d="M815.8 407.78L683.73 545.29" stroke="rgba(19, 46, 101, 0.54)" stroke-width="1.5"></path><path d="M815.8 407.78L1004.24 366.42" stroke="rgba(19, 46, 101, 0.54)" stroke-width="1.5"></path><path d="M846.85 556.25L846.85 556.25" stroke="rgba(19, 46, 101, 0.54)" stroke-width="1.5"></path><path d="M846.85 556.25L969.08 545.81" stroke="rgba(19, 46, 101, 0.54)" stroke-width="1.5"></path><path d="M984.6 -75.51L984.6 -75.51" stroke="rgba(19, 46, 101, 0.54)" stroke-width="1.5"></path><path d="M984.6 -75.51L964.14 39.55" stroke="rgba(19, 46, 101, 0.54)" stroke-width="1.5"></path><path d="M984.6 -75.51L1140.55 -105.53" stroke="rgba(19, 46, 101, 0.54)" stroke-width="1.5"></path><path d="M964.14 39.55L964.14 39.55" stroke="rgba(19, 46, 101, 0.54)" stroke-width="1.5"></path><path d="M964.14 39.55L973.23 216.11" stroke="rgba(19, 46, 101, 0.54)" stroke-width="1.5"></path><path d="M964.14 39.55L1158.73 100.89" stroke="rgba(19, 46, 101, 0.54)" stroke-width="1.5"></path><path d="M964.14 39.55L1115.82 204.54" stroke="rgba(19, 46, 101, 0.54)" stroke-width="1.5"></path><path d="M964.14 39.55L1140.55 -105.53" stroke="rgba(19, 46, 101, 0.54)" stroke-width="1.5"></path><path d="M973.23 216.11L973.23 216.11" stroke="rgba(19, 46, 101, 0.54)" stroke-width="1.5"></path><path d="M973.23 216.11L1115.82 204.54" stroke="rgba(19, 46, 101, 0.54)" stroke-width="1.5"></path><path d="M973.23 216.11L1004.24 366.42" stroke="rgba(19, 46, 101, 0.54)" stroke-width="1.5"></path><path d="M973.23 216.11L1113.36 362.54" stroke="rgba(19, 46, 101, 0.54)" stroke-width="1.5"></path><path d="M1004.24 366.42L1004.24 366.42" stroke="rgba(19, 46, 101, 0.54)" stroke-width="1.5"></path><path d="M1004.24 366.42L1113.36 362.54" stroke="rgba(19, 46, 101, 0.54)" stroke-width="1.5"></path><path d="M969.08 545.81L969.08 545.81" stroke="rgba(19, 46, 101, 0.54)" stroke-width="1.5"></path><path d="M969.08 545.81L1103.1 556.05" stroke="rgba(19, 46, 101, 0.54)" stroke-width="1.5"></path><path d="M969.08 545.81L1005.42 696.7" stroke="rgba(19, 46, 101, 0.54)" stroke-width="1.5"></path><path d="M1005.42 696.7L1005.42 696.7" stroke="rgba(19, 46, 101, 0.54)" stroke-width="1.5"></path><path d="M1005.42 696.7L1140.27 683.83" stroke="rgba(19, 46, 101, 0.54)" stroke-width="1.5"></path><path d="M1005.42 696.7L1103.1 556.05" stroke="rgba(19, 46, 101, 0.54)" stroke-width="1.5"></path><path d="M1005.42 696.7L846.85 556.25" stroke="rgba(19, 46, 101, 0.54)" stroke-width="1.5"></path><path d="M1005.42 696.7L1271.41 657.94" stroke="rgba(19, 46, 101, 0.54)" stroke-width="1.5"></path><path d="M1140.55 -105.53L1140.55 -105.53" stroke="rgba(19, 46, 101, 0.54)" stroke-width="1.5"></path><path d="M1140.55 -105.53L1260.22 -42.94" stroke="rgba(19, 46, 101, 0.54)" stroke-width="1.5"></path><path d="M1140.55 -105.53L1158.73 100.89" stroke="rgba(19, 46, 101, 0.54)" stroke-width="1.5"></path><path d="M1140.55 -105.53L1305.05 99.22" stroke="rgba(19, 46, 101, 0.54)" stroke-width="1.5"></path><path d="M1140.55 -105.53L1432.4 -72.18" stroke="rgba(19, 46, 101, 0.54)" stroke-width="1.5"></path><path d="M1158.73 100.89L1158.73 100.89" stroke="rgba(19, 46, 101, 0.54)" stroke-width="1.5"></path><path d="M1158.73 100.89L1115.82 204.54" stroke="rgba(19, 46, 101, 0.54)" stroke-width="1.5"></path><path d="M1158.73 100.89L1305.05 99.22" stroke="rgba(19, 46, 101, 0.54)" stroke-width="1.5"></path><path d="M1158.73 100.89L1260.22 -42.94" stroke="rgba(19, 46, 101, 0.54)" stroke-width="1.5"></path><path d="M1158.73 100.89L1295.02 233.23" stroke="rgba(19, 46, 101, 0.54)" stroke-width="1.5"></path><path d="M1115.82 204.54L1115.82 204.54" stroke="rgba(19, 46, 101, 0.54)" stroke-width="1.5"></path><path d="M1115.82 204.54L1113.36 362.54" stroke="rgba(19, 46, 101, 0.54)" stroke-width="1.5"></path><path d="M1115.82 204.54L1295.02 233.23" stroke="rgba(19, 46, 101, 0.54)" stroke-width="1.5"></path><path d="M1115.82 204.54L1004.24 366.42" stroke="rgba(19, 46, 101, 0.54)" stroke-width="1.5"></path><path d="M1113.36 362.54L1113.36 362.54" stroke="rgba(19, 46, 101, 0.54)" stroke-width="1.5"></path><path d="M1113.36 362.54L1304.85 343.68" stroke="rgba(19, 46, 101, 0.54)" stroke-width="1.5"></path><path d="M1113.36 362.54L1103.1 556.05" stroke="rgba(19, 46, 101, 0.54)" stroke-width="1.5"></path><path d="M1103.1 556.05L1103.1 556.05" stroke="rgba(19, 46, 101, 0.54)" stroke-width="1.5"></path><path d="M1103.1 556.05L1140.27 683.83" stroke="rgba(19, 46, 101, 0.54)" stroke-width="1.5"></path><path d="M1140.27 683.83L1140.27 683.83" stroke="rgba(19, 46, 101, 0.54)" stroke-width="1.5"></path><path d="M1260.22 -42.94L1260.22 -42.94" stroke="rgba(19, 46, 101, 0.54)" stroke-width="1.5"></path><path d="M1260.22 -42.94L1305.05 99.22" stroke="rgba(19, 46, 101, 0.54)" stroke-width="1.5"></path><path d="M1260.22 -42.94L1432.4 -72.18" stroke="rgba(19, 46, 101, 0.54)" stroke-width="1.5"></path><path d="M1260.22 -42.94L1448.84 91.52" stroke="rgba(19, 46, 101, 0.54)" stroke-width="1.5"></path><path d="M1260.22 -42.94L984.6 -75.51" stroke="rgba(19, 46, 101, 0.54)" stroke-width="1.5"></path><path d="M1305.05 99.22L1305.05 99.22" stroke="rgba(19, 46, 101, 0.54)" stroke-width="1.5"></path><path d="M1305.05 99.22L1295.02 233.23" stroke="rgba(19, 46, 101, 0.54)" stroke-width="1.5"></path><path d="M1305.05 99.22L1448.84 91.52" stroke="rgba(19, 46, 101, 0.54)" stroke-width="1.5"></path><path d="M1295.02 233.23L1295.02 233.23" stroke="rgba(19, 46, 101, 0.54)" stroke-width="1.5"></path><path d="M1295.02 233.23L1304.85 343.68" stroke="rgba(19, 46, 101, 0.54)" stroke-width="1.5"></path><path d="M1304.85 343.68L1304.85 343.68" stroke="rgba(19, 46, 101, 0.54)" stroke-width="1.5"></path><path d="M1304.85 343.68L1423.15 343.12" stroke="rgba(19, 46, 101, 0.54)" stroke-width="1.5"></path><path d="M1271.41 657.94L1271.41 657.94" stroke="rgba(19, 46, 101, 0.54)" stroke-width="1.5"></path><path d="M1271.41 657.94L1140.27 683.83" stroke="rgba(19, 46, 101, 0.54)" stroke-width="1.5"></path><path d="M1271.41 657.94L1414.28 642.1" stroke="rgba(19, 46, 101, 0.54)" stroke-width="1.5"></path><path d="M1271.41 657.94L1400.2 551.27" stroke="rgba(19, 46, 101, 0.54)" stroke-width="1.5"></path><path d="M1271.41 657.94L1103.1 556.05" stroke="rgba(19, 46, 101, 0.54)" stroke-width="1.5"></path><path d="M1432.4 -72.18L1432.4 -72.18" stroke="rgba(19, 46, 101, 0.54)" stroke-width="1.5"></path><path d="M1432.4 -72.18L1448.84 91.52" stroke="rgba(19, 46, 101, 0.54)" stroke-width="1.5"></path><path d="M1448.84 91.52L1448.84 91.52" stroke="rgba(19, 46, 101, 0.54)" stroke-width="1.5"></path><path d="M1448.84 91.52L1582.81 110.62" stroke="rgba(19, 46, 101, 0.54)" stroke-width="1.5"></path><path d="M1448.84 91.52L1427.1 236.06" stroke="rgba(19, 46, 101, 0.54)" stroke-width="1.5"></path><path d="M1448.84 91.52L1584.42 249.92" stroke="rgba(19, 46, 101, 0.54)" stroke-width="1.5"></path><path d="M1448.84 91.52L1295.02 233.23" stroke="rgba(19, 46, 101, 0.54)" stroke-width="1.5"></path><path d="M1427.1 236.06L1427.1 236.06" stroke="rgba(19, 46, 101, 0.54)" stroke-width="1.5"></path><path d="M1427.1 236.06L1423.15 343.12" stroke="rgba(19, 46, 101, 0.54)" stroke-width="1.5"></path><path d="M1427.1 236.06L1295.02 233.23" stroke="rgba(19, 46, 101, 0.54)" stroke-width="1.5"></path><path d="M1423.15 343.12L1423.15 343.12" stroke="rgba(19, 46, 101, 0.54)" stroke-width="1.5"></path><path d="M1423.15 343.12L1578.71 385.1" stroke="rgba(19, 46, 101, 0.54)" stroke-width="1.5"></path><path d="M1400.2 551.27L1400.2 551.27" stroke="rgba(19, 46, 101, 0.54)" stroke-width="1.5"></path><path d="M1400.2 551.27L1414.28 642.1" stroke="rgba(19, 46, 101, 0.54)" stroke-width="1.5"></path><path d="M1400.2 551.27L1568.8 506.8" stroke="rgba(19, 46, 101, 0.54)" stroke-width="1.5"></path><path d="M1414.28 642.1L1414.28 642.1" stroke="rgba(19, 46, 101, 0.54)" stroke-width="1.5"></path><path d="M1414.28 642.1L1611.3 651.4" stroke="rgba(19, 46, 101, 0.54)" stroke-width="1.5"></path><path d="M1414.28 642.1L1568.8 506.8" stroke="rgba(19, 46, 101, 0.54)" stroke-width="1.5"></path><path d="M1414.28 642.1L1140.27 683.83" stroke="rgba(19, 46, 101, 0.54)" stroke-width="1.5"></path><path d="M1414.28 642.1L1423.15 343.12" stroke="rgba(19, 46, 101, 0.54)" stroke-width="1.5"></path><path d="M1608.37 -46.47L1608.37 -46.47" stroke="rgba(19, 46, 101, 0.54)" stroke-width="1.5"></path><path d="M1608.37 -46.47L1582.81 110.62" stroke="rgba(19, 46, 101, 0.54)" stroke-width="1.5"></path><path d="M1608.37 -46.47L1432.4 -72.18" stroke="rgba(19, 46, 101, 0.54)" stroke-width="1.5"></path><path d="M1582.81 110.62L1582.81 110.62" stroke="rgba(19, 46, 101, 0.54)" stroke-width="1.5"></path><path d="M1582.81 110.62L1584.42 249.92" stroke="rgba(19, 46, 101, 0.54)" stroke-width="1.5"></path><path d="M1584.42 249.92L1584.42 249.92" stroke="rgba(19, 46, 101, 0.54)" stroke-width="1.5"></path><path d="M1584.42 249.92L1578.71 385.1" stroke="rgba(19, 46, 101, 0.54)" stroke-width="1.5"></path><path d="M1584.42 249.92L1427.1 236.06" stroke="rgba(19, 46, 101, 0.54)" stroke-width="1.5"></path><path d="M1584.42 249.92L1423.15 343.12" stroke="rgba(19, 46, 101, 0.54)" stroke-width="1.5"></path><path d="M1578.71 385.1L1578.71 385.1" stroke="rgba(19, 46, 101, 0.54)" stroke-width="1.5"></path><path d="M1578.71 385.1L1568.8 506.8" stroke="rgba(19, 46, 101, 0.54)" stroke-width="1.5"></path><path d="M1578.71 385.1L1427.1 236.06" stroke="rgba(19, 46, 101, 0.54)" stroke-width="1.5"></path><path d="M1578.71 385.1L1400.2 551.27" stroke="rgba(19, 46, 101, 0.54)" stroke-width="1.5"></path><path d="M1578.71 385.1L1611.3 651.4" stroke="rgba(19, 46, 101, 0.54)" stroke-width="1.5"></path><path d="M1568.8 506.8L1568.8 506.8" stroke="rgba(19, 46, 101, 0.54)" stroke-width="1.5"></path><path d="M1568.8 506.8L1611.3 651.4" stroke="rgba(19, 46, 101, 0.54)" stroke-width="1.5"></path><path d="M1611.3 651.4L1611.3 651.4" stroke="rgba(19, 46, 101, 0.54)" stroke-width="1.5"></path><path d="M1611.3 651.4L1400.2 551.27" stroke="rgba(19, 46, 101, 0.54)" stroke-width="1.5"></path><path d="M1611.3 651.4L1271.41 657.94" stroke="rgba(19, 46, 101, 0.54)" stroke-width="1.5"></path><path d="M1611.3 651.4L1423.15 343.12" stroke="rgba(19, 46, 101, 0.54)" stroke-width="1.5"></path><circle r="5" cx="-64.53" cy="396.53" fill="rgba(19, 46, 101, 0.54)"></circle><circle r="5" cx="-94.62" cy="538.56" fill="rgba(19, 46, 101, 0.54)"></circle><circle r="5" cx="-69.27" cy="655.34" fill="rgba(19, 46, 101, 0.54)"></circle><circle r="5" cx="78.59" cy="339.99" fill="rgba(19, 46, 101, 0.54)"></circle><circle r="5" cx="42.85" cy="515" fill="rgba(19, 46, 101, 0.54)"></circle><circle r="5" cx="66.81" cy="700.58" fill="rgba(19, 46, 101, 0.54)"></circle><circle r="5" cx="245.59" cy="351.72" fill="rgba(19, 46, 101, 0.54)"></circle><circle r="5" cx="260.45" cy="551.93" fill="rgba(19, 46, 101, 0.54)"></circle><circle r="5" cx="238.5" cy="700.75" fill="rgba(19, 46, 101, 0.54)"></circle><circle r="5" cx="338.05" cy="369.39" fill="rgba(19, 46, 101, 0.54)"></circle><circle r="5" cx="396.62" cy="511.37" fill="rgba(19, 46, 101, 0.54)"></circle><circle r="5" cx="394.07" cy="672.48" fill="rgba(19, 46, 101, 0.54)"></circle><circle r="5" cx="538.41" cy="356.85" fill="rgba(19, 46, 101, 0.54)"></circle><circle r="5" cx="547.84" cy="493.94" fill="rgba(19, 46, 101, 0.54)"></circle><circle r="5" cx="497.82" cy="709.59" fill="rgba(19, 46, 101, 0.54)"></circle><circle r="5" cx="656.49" cy="240.22" fill="rgba(19, 46, 101, 0.54)"></circle><circle r="5" cx="706.57" cy="385.58" fill="rgba(19, 46, 101, 0.54)"></circle><circle r="5" cx="683.73" cy="545.29" fill="rgba(19, 46, 101, 0.54)"></circle><circle r="5" cx="642.26" cy="689.43" fill="rgba(19, 46, 101, 0.54)"></circle><circle r="5" cx="857.59" cy="208.73" fill="rgba(19, 46, 101, 0.54)"></circle><circle r="5" cx="815.8" cy="407.78" fill="rgba(19, 46, 101, 0.54)"></circle><circle r="5" cx="846.85" cy="556.25" fill="rgba(19, 46, 101, 0.54)"></circle><circle r="5" cx="984.6" cy="-75.51" fill="rgba(19, 46, 101, 0.54)"></circle><circle r="5" cx="964.14" cy="39.55" fill="rgba(19, 46, 101, 0.54)"></circle><circle r="5" cx="973.23" cy="216.11" fill="rgba(19, 46, 101, 0.54)"></circle><circle r="5" cx="1004.24" cy="366.42" fill="rgba(19, 46, 101, 0.54)"></circle><circle r="5" cx="969.08" cy="545.81" fill="rgba(19, 46, 101, 0.54)"></circle><circle r="5" cx="1005.42" cy="696.7" fill="rgba(19, 46, 101, 0.54)"></circle><circle r="5" cx="1140.55" cy="-105.53" fill="rgba(19, 46, 101, 0.54)"></circle><circle r="5" cx="1158.73" cy="100.89" fill="rgba(19, 46, 101, 0.54)"></circle><circle r="5" cx="1115.82" cy="204.54" fill="rgba(19, 46, 101, 0.54)"></circle><circle r="5" cx="1113.36" cy="362.54" fill="rgba(19, 46, 101, 0.54)"></circle><circle r="5" cx="1103.1" cy="556.05" fill="rgba(19, 46, 101, 0.54)"></circle><circle r="5" cx="1140.27" cy="683.83" fill="rgba(19, 46, 101, 0.54)"></circle><circle r="5" cx="1260.22" cy="-42.94" fill="rgba(19, 46, 101, 0.54)"></circle><circle r="5" cx="1305.05" cy="99.22" fill="rgba(19, 46, 101, 0.54)"></circle><circle r="5" cx="1295.02" cy="233.23" fill="rgba(19, 46, 101, 0.54)"></circle><circle r="5" cx="1304.85" cy="343.68" fill="rgba(19, 46, 101, 0.54)"></circle><circle r="5" cx="1271.41" cy="657.94" fill="rgba(19, 46, 101, 0.54)"></circle><circle r="5" cx="1432.4" cy="-72.18" fill="rgba(19, 46, 101, 0.54)"></circle><circle r="5" cx="1448.84" cy="91.52" fill="rgba(19, 46, 101, 0.54)"></circle><circle r="5" cx="1427.1" cy="236.06" fill="rgba(19, 46, 101, 0.54)"></circle><circle r="5" cx="1423.15" cy="343.12" fill="rgba(19, 46, 101, 0.54)"></circle><circle r="5" cx="1400.2" cy="551.27" fill="rgba(19, 46, 101, 0.54)"></circle><circle r="5" cx="1414.28" cy="642.1" fill="rgba(19, 46, 101, 0.54)"></circle><circle r="5" cx="1608.37" cy="-46.47" fill="rgba(19, 46, 101, 0.54)"></circle><circle r="5" cx="1582.81" cy="110.62" fill="rgba(19, 46, 101, 0.54)"></circle><circle r="5" cx="1584.42" cy="249.92" fill="rgba(19, 46, 101, 0.54)"></circle><circle r="5" cx="1578.71" cy="385.1" fill="rgba(19, 46, 101, 0.54)"></circle><circle r="5" cx="1568.8" cy="506.8" fill="rgba(19, 46, 101, 0.54)"></circle><circle r="5" cx="1611.3" cy="651.4" fill="rgba(19, 46, 101, 0.54)"></circle><path d="M1004.37 222.51L1004.37 222.51" stroke="hsla(284.6, 77.2%, 51.5%, 0.52)" stroke-width="1.5"></path><path d="M1004.37 222.51L1095.92 217.03" stroke="hsla(284.6, 77.2%, 51.5%, 0.52)" stroke-width="1.5"></path><path d="M942.86 383.54L942.86 383.54" stroke="hsla(284.6, 77.2%, 51.5%, 0.52)" stroke-width="1.5"></path><path d="M942.86 383.54L959.18 500.47" stroke="hsla(284.6, 77.2%, 51.5%, 0.52)" stroke-width="1.5"></path><path d="M942.86 383.54L816.88 405.04" stroke="hsla(284.6, 77.2%, 51.5%, 0.52)" stroke-width="1.5"></path><path d="M942.86 383.54L1004.37 222.51" stroke="hsla(284.6, 77.2%, 51.5%, 0.52)" stroke-width="1.5"></path><path d="M942.86 383.54L858.32 557.09" stroke="hsla(284.6, 77.2%, 51.5%, 0.52)" stroke-width="1.5"></path><path d="M959.18 500.47L959.18 500.47" stroke="hsla(284.6, 77.2%, 51.5%, 0.52)" stroke-width="1.5"></path><path d="M959.18 500.47L858.32 557.09" stroke="hsla(284.6, 77.2%, 51.5%, 0.52)" stroke-width="1.5"></path><path d="M959.18 500.47L1098.6 528.77" stroke="hsla(284.6, 77.2%, 51.5%, 0.52)" stroke-width="1.5"></path><path d="M959.18 500.47L816.88 405.04" stroke="hsla(284.6, 77.2%, 51.5%, 0.52)" stroke-width="1.5"></path><path d="M1139.91 391.23L1139.91 391.23" stroke="hsla(284.6, 77.2%, 51.5%, 0.52)" stroke-width="1.5"></path><path d="M1139.91 391.23L1098.6 528.77" stroke="hsla(284.6, 77.2%, 51.5%, 0.52)" stroke-width="1.5"></path><path d="M1139.91 391.23L1293.44 345.63" stroke="hsla(284.6, 77.2%, 51.5%, 0.52)" stroke-width="1.5"></path><path d="M1098.6 528.77L1098.6 528.77" stroke="hsla(284.6, 77.2%, 51.5%, 0.52)" stroke-width="1.5"></path><path d="M1250.79 105.19L1250.79 105.19" stroke="hsla(284.6, 77.2%, 51.5%, 0.52)" stroke-width="1.5"></path><path d="M1250.79 105.19L1290.55 252.65" stroke="hsla(284.6, 77.2%, 51.5%, 0.52)" stroke-width="1.5"></path><path d="M1250.79 105.19L1095.92 217.03" stroke="hsla(284.6, 77.2%, 51.5%, 0.52)" stroke-width="1.5"></path><path d="M1396.12 511.61L1396.12 511.61" stroke="hsla(284.6, 77.2%, 51.5%, 0.52)" stroke-width="1.5"></path><path d="M1396.12 511.61L1452.74 406.52" stroke="hsla(284.6, 77.2%, 51.5%, 0.52)" stroke-width="1.5"></path><path d="M1396.12 511.61L1391.33 653.72" stroke="hsla(284.6, 77.2%, 51.5%, 0.52)" stroke-width="1.5"></path><path d="M1396.12 511.61L1293.44 345.63" stroke="hsla(284.6, 77.2%, 51.5%, 0.52)" stroke-width="1.5"></path><path d="M1396.12 511.61L1592.65 548.95" stroke="hsla(284.6, 77.2%, 51.5%, 0.52)" stroke-width="1.5"></path><path d="M1396.12 511.61L1256.45 656.76" stroke="hsla(284.6, 77.2%, 51.5%, 0.52)" stroke-width="1.5"></path><path d="M1391.33 653.72L1391.33 653.72" stroke="hsla(284.6, 77.2%, 51.5%, 0.52)" stroke-width="1.5"></path><path d="M1391.33 653.72L1256.45 656.76" stroke="hsla(284.6, 77.2%, 51.5%, 0.52)" stroke-width="1.5"></path><path d="M1391.33 653.72L1547.12 687.81" stroke="hsla(284.6, 77.2%, 51.5%, 0.52)" stroke-width="1.5"></path><path d="M1391.33 653.72L1592.65 548.95" stroke="hsla(284.6, 77.2%, 51.5%, 0.52)" stroke-width="1.5"></path><path d="M1391.33 653.72L1153.69 672.82" stroke="hsla(284.6, 77.2%, 51.5%, 0.52)" stroke-width="1.5"></path><path d="M1585.94 242.19L1585.94 242.19" stroke="hsla(284.6, 77.2%, 51.5%, 0.52)" stroke-width="1.5"></path><path d="M1585.94 242.19L1582.75 383.8" stroke="hsla(284.6, 77.2%, 51.5%, 0.52)" stroke-width="1.5"></path><path d="M1585.94 242.19L1416.53 233.6" stroke="hsla(284.6, 77.2%, 51.5%, 0.52)" stroke-width="1.5"></path><path d="M1585.94 242.19L1549.22 50.2" stroke="hsla(284.6, 77.2%, 51.5%, 0.52)" stroke-width="1.5"></path><path d="M1585.94 242.19L1452 88.15" stroke="hsla(284.6, 77.2%, 51.5%, 0.52)" stroke-width="1.5"></path><path d="M1585.94 242.19L1452.74 406.52" stroke="hsla(284.6, 77.2%, 51.5%, 0.52)" stroke-width="1.5"></path><path d="M1582.75 383.8L1582.75 383.8" stroke="hsla(284.6, 77.2%, 51.5%, 0.52)" stroke-width="1.5"></path><path d="M1582.75 383.8L1452.74 406.52" stroke="hsla(284.6, 77.2%, 51.5%, 0.52)" stroke-width="1.5"></path><path d="M1547.12 687.81L1547.12 687.81" stroke="hsla(284.6, 77.2%, 51.5%, 0.52)" stroke-width="1.5"></path><path d="M1547.12 687.81L1592.65 548.95" stroke="hsla(284.6, 77.2%, 51.5%, 0.52)" stroke-width="1.5"></path><path d="M1547.12 687.81L1396.12 511.61" stroke="hsla(284.6, 77.2%, 51.5%, 0.52)" stroke-width="1.5"></path><path d="M1547.12 687.81L1256.45 656.76" stroke="hsla(284.6, 77.2%, 51.5%, 0.52)" stroke-width="1.5"></path><path d="M-56.3 496.93L-56.3 496.93" stroke="hsla(284.6, 77.2%, 51.5%, 0.52)" stroke-width="1.5"></path><path d="M-56.3 496.93L68.17 494.02" stroke="hsla(284.6, 77.2%, 51.5%, 0.52)" stroke-width="1.5"></path><path d="M-56.3 496.93L-103.18 641.26" stroke="hsla(284.6, 77.2%, 51.5%, 0.52)" stroke-width="1.5"></path><path d="M-56.3 496.93L92.69 695.99" stroke="hsla(284.6, 77.2%, 51.5%, 0.52)" stroke-width="1.5"></path><path d="M-56.3 496.93L225.6 530.98" stroke="hsla(284.6, 77.2%, 51.5%, 0.52)" stroke-width="1.5"></path><path d="M-56.3 496.93L261.43 639.79" stroke="hsla(284.6, 77.2%, 51.5%, 0.52)" stroke-width="1.5"></path><path d="M-56.3 496.93L374.73 665.49" stroke="hsla(284.6, 77.2%, 51.5%, 0.52)" stroke-width="1.5"></path><path d="M-103.18 641.26L-103.18 641.26" stroke="hsla(284.6, 77.2%, 51.5%, 0.52)" stroke-width="1.5"></path><path d="M-103.18 641.26L92.69 695.99" stroke="hsla(284.6, 77.2%, 51.5%, 0.52)" stroke-width="1.5"></path><path d="M-103.18 641.26L68.17 494.02" stroke="hsla(284.6, 77.2%, 51.5%, 0.52)" stroke-width="1.5"></path><path d="M-103.18 641.26L225.6 530.98" stroke="hsla(284.6, 77.2%, 51.5%, 0.52)" stroke-width="1.5"></path><path d="M-103.18 641.26L261.43 639.79" stroke="hsla(284.6, 77.2%, 51.5%, 0.52)" stroke-width="1.5"></path><path d="M68.17 494.02L68.17 494.02" stroke="hsla(284.6, 77.2%, 51.5%, 0.52)" stroke-width="1.5"></path><path d="M68.17 494.02L225.6 530.98" stroke="hsla(284.6, 77.2%, 51.5%, 0.52)" stroke-width="1.5"></path><path d="M68.17 494.02L92.69 695.99" stroke="hsla(284.6, 77.2%, 51.5%, 0.52)" stroke-width="1.5"></path><path d="M68.17 494.02L261.43 639.79" stroke="hsla(284.6, 77.2%, 51.5%, 0.52)" stroke-width="1.5"></path><path d="M68.17 494.02L374.73 665.49" stroke="hsla(284.6, 77.2%, 51.5%, 0.52)" stroke-width="1.5"></path><path d="M92.69 695.99L92.69 695.99" stroke="hsla(284.6, 77.2%, 51.5%, 0.52)" stroke-width="1.5"></path><path d="M92.69 695.99L261.43 639.79" stroke="hsla(284.6, 77.2%, 51.5%, 0.52)" stroke-width="1.5"></path><path d="M92.69 695.99L225.6 530.98" stroke="hsla(284.6, 77.2%, 51.5%, 0.52)" stroke-width="1.5"></path><path d="M225.6 530.98L225.6 530.98" stroke="hsla(284.6, 77.2%, 51.5%, 0.52)" stroke-width="1.5"></path><path d="M225.6 530.98L261.43 639.79" stroke="hsla(284.6, 77.2%, 51.5%, 0.52)" stroke-width="1.5"></path><path d="M261.43 639.79L261.43 639.79" stroke="hsla(284.6, 77.2%, 51.5%, 0.52)" stroke-width="1.5"></path><path d="M261.43 639.79L374.73 665.49" stroke="hsla(284.6, 77.2%, 51.5%, 0.52)" stroke-width="1.5"></path><path d="M374.73 665.49L374.73 665.49" stroke="hsla(284.6, 77.2%, 51.5%, 0.52)" stroke-width="1.5"></path><path d="M374.73 665.49L530.53 703.18" stroke="hsla(284.6, 77.2%, 51.5%, 0.52)" stroke-width="1.5"></path><path d="M374.73 665.49L225.6 530.98" stroke="hsla(284.6, 77.2%, 51.5%, 0.52)" stroke-width="1.5"></path><path d="M374.73 665.49L92.69 695.99" stroke="hsla(284.6, 77.2%, 51.5%, 0.52)" stroke-width="1.5"></path><path d="M374.73 665.49L664.17 692.53" stroke="hsla(284.6, 77.2%, 51.5%, 0.52)" stroke-width="1.5"></path><path d="M374.73 665.49L671.05 499.66" stroke="hsla(284.6, 77.2%, 51.5%, 0.52)" stroke-width="1.5"></path><path d="M530.53 703.18L530.53 703.18" stroke="hsla(284.6, 77.2%, 51.5%, 0.52)" stroke-width="1.5"></path><path d="M530.53 703.18L664.17 692.53" stroke="hsla(284.6, 77.2%, 51.5%, 0.52)" stroke-width="1.5"></path><path d="M530.53 703.18L671.05 499.66" stroke="hsla(284.6, 77.2%, 51.5%, 0.52)" stroke-width="1.5"></path><path d="M530.53 703.18L261.43 639.79" stroke="hsla(284.6, 77.2%, 51.5%, 0.52)" stroke-width="1.5"></path><path d="M671.05 499.66L671.05 499.66" stroke="hsla(284.6, 77.2%, 51.5%, 0.52)" stroke-width="1.5"></path><path d="M671.05 499.66L816.88 405.04" stroke="hsla(284.6, 77.2%, 51.5%, 0.52)" stroke-width="1.5"></path><path d="M671.05 499.66L664.17 692.53" stroke="hsla(284.6, 77.2%, 51.5%, 0.52)" stroke-width="1.5"></path><path d="M664.17 692.53L664.17 692.53" stroke="hsla(284.6, 77.2%, 51.5%, 0.52)" stroke-width="1.5"></path><path d="M664.17 692.53L837.9 649.87" stroke="hsla(284.6, 77.2%, 51.5%, 0.52)" stroke-width="1.5"></path><path d="M816.88 405.04L816.88 405.04" stroke="hsla(284.6, 77.2%, 51.5%, 0.52)" stroke-width="1.5"></path><path d="M816.88 405.04L858.32 557.09" stroke="hsla(284.6, 77.2%, 51.5%, 0.52)" stroke-width="1.5"></path><path d="M858.32 557.09L858.32 557.09" stroke="hsla(284.6, 77.2%, 51.5%, 0.52)" stroke-width="1.5"></path><path d="M858.32 557.09L837.9 649.87" stroke="hsla(284.6, 77.2%, 51.5%, 0.52)" stroke-width="1.5"></path><path d="M837.9 649.87L837.9 649.87" stroke="hsla(284.6, 77.2%, 51.5%, 0.52)" stroke-width="1.5"></path><path d="M837.9 649.87L980.41 694.77" stroke="hsla(284.6, 77.2%, 51.5%, 0.52)" stroke-width="1.5"></path><path d="M837.9 649.87L959.18 500.47" stroke="hsla(284.6, 77.2%, 51.5%, 0.52)" stroke-width="1.5"></path><path d="M837.9 649.87L671.05 499.66" stroke="hsla(284.6, 77.2%, 51.5%, 0.52)" stroke-width="1.5"></path><path d="M837.9 649.87L816.88 405.04" stroke="hsla(284.6, 77.2%, 51.5%, 0.52)" stroke-width="1.5"></path><path d="M980.41 694.77L980.41 694.77" stroke="hsla(284.6, 77.2%, 51.5%, 0.52)" stroke-width="1.5"></path><path d="M980.41 694.77L1153.69 672.82" stroke="hsla(284.6, 77.2%, 51.5%, 0.52)" stroke-width="1.5"></path><path d="M980.41 694.77L858.32 557.09" stroke="hsla(284.6, 77.2%, 51.5%, 0.52)" stroke-width="1.5"></path><path d="M980.41 694.77L959.18 500.47" stroke="hsla(284.6, 77.2%, 51.5%, 0.52)" stroke-width="1.5"></path><path d="M980.41 694.77L1098.6 528.77" stroke="hsla(284.6, 77.2%, 51.5%, 0.52)" stroke-width="1.5"></path><path d="M1095.92 217.03L1095.92 217.03" stroke="hsla(284.6, 77.2%, 51.5%, 0.52)" stroke-width="1.5"></path><path d="M1095.92 217.03L1139.91 391.23" stroke="hsla(284.6, 77.2%, 51.5%, 0.52)" stroke-width="1.5"></path><path d="M1095.92 217.03L1290.55 252.65" stroke="hsla(284.6, 77.2%, 51.5%, 0.52)" stroke-width="1.5"></path><path d="M1095.92 217.03L942.86 383.54" stroke="hsla(284.6, 77.2%, 51.5%, 0.52)" stroke-width="1.5"></path><path d="M1095.92 217.03L1293.44 345.63" stroke="hsla(284.6, 77.2%, 51.5%, 0.52)" stroke-width="1.5"></path><path d="M1153.69 672.82L1153.69 672.82" stroke="hsla(284.6, 77.2%, 51.5%, 0.52)" stroke-width="1.5"></path><path d="M1153.69 672.82L1256.45 656.76" stroke="hsla(284.6, 77.2%, 51.5%, 0.52)" stroke-width="1.5"></path><path d="M1153.69 672.82L1098.6 528.77" stroke="hsla(284.6, 77.2%, 51.5%, 0.52)" stroke-width="1.5"></path><path d="M1153.69 672.82L959.18 500.47" stroke="hsla(284.6, 77.2%, 51.5%, 0.52)" stroke-width="1.5"></path><path d="M1153.69 672.82L1139.91 391.23" stroke="hsla(284.6, 77.2%, 51.5%, 0.52)" stroke-width="1.5"></path><path d="M1241.46 -90.67L1241.46 -90.67" stroke="hsla(284.6, 77.2%, 51.5%, 0.52)" stroke-width="1.5"></path><path d="M1241.46 -90.67L1250.79 105.19" stroke="hsla(284.6, 77.2%, 51.5%, 0.52)" stroke-width="1.5"></path><path d="M1241.46 -90.67L1443.33 -58.04" stroke="hsla(284.6, 77.2%, 51.5%, 0.52)" stroke-width="1.5"></path><path d="M1290.55 252.65L1290.55 252.65" stroke="hsla(284.6, 77.2%, 51.5%, 0.52)" stroke-width="1.5"></path><path d="M1290.55 252.65L1293.44 345.63" stroke="hsla(284.6, 77.2%, 51.5%, 0.52)" stroke-width="1.5"></path><path d="M1290.55 252.65L1416.53 233.6" stroke="hsla(284.6, 77.2%, 51.5%, 0.52)" stroke-width="1.5"></path><path d="M1293.44 345.63L1293.44 345.63" stroke="hsla(284.6, 77.2%, 51.5%, 0.52)" stroke-width="1.5"></path><path d="M1256.45 656.76L1256.45 656.76" stroke="hsla(284.6, 77.2%, 51.5%, 0.52)" stroke-width="1.5"></path><path d="M1443.33 -58.04L1443.33 -58.04" stroke="hsla(284.6, 77.2%, 51.5%, 0.52)" stroke-width="1.5"></path><path d="M1443.33 -58.04L1579 -72.71" stroke="hsla(284.6, 77.2%, 51.5%, 0.52)" stroke-width="1.5"></path><path d="M1443.33 -58.04L1452 88.15" stroke="hsla(284.6, 77.2%, 51.5%, 0.52)" stroke-width="1.5"></path><path d="M1443.33 -58.04L1549.22 50.2" stroke="hsla(284.6, 77.2%, 51.5%, 0.52)" stroke-width="1.5"></path><path d="M1443.33 -58.04L1250.79 105.19" stroke="hsla(284.6, 77.2%, 51.5%, 0.52)" stroke-width="1.5"></path><path d="M1443.33 -58.04L1416.53 233.6" stroke="hsla(284.6, 77.2%, 51.5%, 0.52)" stroke-width="1.5"></path><path d="M1452 88.15L1452 88.15" stroke="hsla(284.6, 77.2%, 51.5%, 0.52)" stroke-width="1.5"></path><path d="M1452 88.15L1549.22 50.2" stroke="hsla(284.6, 77.2%, 51.5%, 0.52)" stroke-width="1.5"></path><path d="M1452 88.15L1416.53 233.6" stroke="hsla(284.6, 77.2%, 51.5%, 0.52)" stroke-width="1.5"></path><path d="M1452 88.15L1250.79 105.19" stroke="hsla(284.6, 77.2%, 51.5%, 0.52)" stroke-width="1.5"></path><path d="M1416.53 233.6L1416.53 233.6" stroke="hsla(284.6, 77.2%, 51.5%, 0.52)" stroke-width="1.5"></path><path d="M1416.53 233.6L1293.44 345.63" stroke="hsla(284.6, 77.2%, 51.5%, 0.52)" stroke-width="1.5"></path><path d="M1416.53 233.6L1452.74 406.52" stroke="hsla(284.6, 77.2%, 51.5%, 0.52)" stroke-width="1.5"></path><path d="M1452.74 406.52L1452.74 406.52" stroke="hsla(284.6, 77.2%, 51.5%, 0.52)" stroke-width="1.5"></path><path d="M1452.74 406.52L1293.44 345.63" stroke="hsla(284.6, 77.2%, 51.5%, 0.52)" stroke-width="1.5"></path><path d="M1579 -72.71L1579 -72.71" stroke="hsla(284.6, 77.2%, 51.5%, 0.52)" stroke-width="1.5"></path><path d="M1579 -72.71L1549.22 50.2" stroke="hsla(284.6, 77.2%, 51.5%, 0.52)" stroke-width="1.5"></path><path d="M1579 -72.71L1452 88.15" stroke="hsla(284.6, 77.2%, 51.5%, 0.52)" stroke-width="1.5"></path><path d="M1579 -72.71L1585.94 242.19" stroke="hsla(284.6, 77.2%, 51.5%, 0.52)" stroke-width="1.5"></path><path d="M1579 -72.71L1241.46 -90.67" stroke="hsla(284.6, 77.2%, 51.5%, 0.52)" stroke-width="1.5"></path><path d="M1579 -72.71L1416.53 233.6" stroke="hsla(284.6, 77.2%, 51.5%, 0.52)" stroke-width="1.5"></path><path d="M1549.22 50.2L1549.22 50.2" stroke="hsla(284.6, 77.2%, 51.5%, 0.52)" stroke-width="1.5"></path><path d="M1592.65 548.95L1592.65 548.95" stroke="hsla(284.6, 77.2%, 51.5%, 0.52)" stroke-width="1.5"></path><path d="M1592.65 548.95L1582.75 383.8" stroke="hsla(284.6, 77.2%, 51.5%, 0.52)" stroke-width="1.5"></path><path d="M1592.65 548.95L1452.74 406.52" stroke="hsla(284.6, 77.2%, 51.5%, 0.52)" stroke-width="1.5"></path><path d="M1592.65 548.95L1585.94 242.19" stroke="hsla(284.6, 77.2%, 51.5%, 0.52)" stroke-width="1.5"></path><circle r="25" cx="1004.37" cy="222.51" fill="url(#SvgjsRadialGradient1005)"></circle><circle r="25" cx="942.86" cy="383.54" fill="url(#SvgjsRadialGradient1005)"></circle><circle r="25" cx="959.18" cy="500.47" fill="url(#SvgjsRadialGradient1005)"></circle><circle r="25" cx="1139.91" cy="391.23" fill="url(#SvgjsRadialGradient1005)"></circle><circle r="25" cx="1098.6" cy="528.77" fill="url(#SvgjsRadialGradient1005)"></circle><circle r="25" cx="1250.79" cy="105.19" fill="url(#SvgjsRadialGradient1005)"></circle><circle r="25" cx="1396.12" cy="511.61" fill="url(#SvgjsRadialGradient1005)"></circle><circle r="25" cx="1391.33" cy="653.72" fill="url(#SvgjsRadialGradient1005)"></circle><circle r="25" cx="1585.94" cy="242.19" fill="url(#SvgjsRadialGradient1005)"></circle><circle r="25" cx="1582.75" cy="383.8" fill="url(#SvgjsRadialGradient1005)"></circle><circle r="25" cx="1547.12" cy="687.81" fill="url(#SvgjsRadialGradient1005)"></circle><circle r="5" cx="-56.3" cy="496.93" fill="rgba(225, 195, 235, 0.76)"></circle><circle r="5" cx="-103.18" cy="641.26" fill="rgba(225, 195, 235, 0.76)"></circle><circle r="5" cx="68.17" cy="494.02" fill="rgba(225, 195, 235, 0.76)"></circle><circle r="5" cx="92.69" cy="695.99" fill="rgba(225, 195, 235, 0.76)"></circle><circle r="5" cx="225.6" cy="530.98" fill="rgba(225, 195, 235, 0.76)"></circle><circle r="5" cx="261.43" cy="639.79" fill="rgba(225, 195, 235, 0.76)"></circle><circle r="5" cx="374.73" cy="665.49" fill="rgba(225, 195, 235, 0.76)"></circle><circle r="5" cx="530.53" cy="703.18" fill="rgba(225, 195, 235, 0.76)"></circle><circle r="5" cx="671.05" cy="499.66" fill="rgba(225, 195, 235, 0.76)"></circle><circle r="5" cx="664.17" cy="692.53" fill="rgba(225, 195, 235, 0.76)"></circle><circle r="5" cx="816.88" cy="405.04" fill="rgba(225, 195, 235, 0.76)"></circle><circle r="5" cx="858.32" cy="557.09" fill="rgba(225, 195, 235, 0.76)"></circle><circle r="5" cx="837.9" cy="649.87" fill="rgba(225, 195, 235, 0.76)"></circle><circle r="5" cx="980.41" cy="694.77" fill="rgba(225, 195, 235, 0.76)"></circle><circle r="5" cx="1095.92" cy="217.03" fill="rgba(225, 195, 235, 0.76)"></circle><circle r="5" cx="1153.69" cy="672.82" fill="rgba(225, 195, 235, 0.76)"></circle><circle r="5" cx="1241.46" cy="-90.67" fill="rgba(225, 195, 235, 0.76)"></circle><circle r="5" cx="1290.55" cy="252.65" fill="rgba(225, 195, 235, 0.76)"></circle><circle r="5" cx="1293.44" cy="345.63" fill="rgba(225, 195, 235, 0.76)"></circle><circle r="5" cx="1256.45" cy="656.76" fill="rgba(225, 195, 235, 0.76)"></circle><circle r="5" cx="1443.33" cy="-58.04" fill="rgba(225, 195, 235, 0.76)"></circle><circle r="5" cx="1452" cy="88.15" fill="rgba(225, 195, 235, 0.76)"></circle><circle r="5" cx="1416.53" cy="233.6" fill="rgba(225, 195, 235, 0.76)"></circle><circle r="5" cx="1452.74" cy="406.52" fill="rgba(225, 195, 235, 0.76)"></circle><circle r="5" cx="1579" cy="-72.71" fill="rgba(225, 195, 235, 0.76)"></circle><circle r="5" cx="1549.22" cy="50.2" fill="rgba(225, 195, 235, 0.76)"></circle><circle r="5" cx="1592.65" cy="548.95" fill="rgba(225, 195, 235, 0.76)"></circle></g><defs><mask id="SvgjsMask1004"><rect width="1440" height="560" fill="#ffffff"></rect></mask><radialGradient id="SvgjsRadialGradient1005"><stop stop-color="#ffffff" offset="0.1"></stop><stop stop-color="rgba(139, 23, 179, 0.52)" offset="0.2"></stop><stop stop-color="rgba(139, 23, 179, 0)" offset="1"></stop></radialGradient></defs></svg>