<?xml version="1.0" standalone="no"?>
<svg xmlns:xlink="http://www.w3.org/1999/xlink" id="wave" style="transform:rotate(0deg); transition: 0.3s" viewBox="0 0 1440 230" version="1.1" xmlns="http://www.w3.org/2000/svg"><defs><linearGradient id="sw-gradient-0" x1="0" x2="0" y1="1" y2="0"><stop stop-color="rgba(25, 28, 50, 1)" offset="0%"/><stop stop-color="rgba(0, 153, 255, 1)" offset="100%"/></linearGradient></defs><path style="transform:translate(0, 0px); opacity:1" fill="url(#sw-gradient-0)" d="M0,115L30,95.8C60,77,120,38,180,53.7C240,69,300,138,360,141.8C420,146,480,84,540,72.8C600,61,660,100,720,126.5C780,153,840,169,900,149.5C960,130,1020,77,1080,46C1140,15,1200,8,1260,23C1320,38,1380,77,1440,95.8C1500,115,1560,115,1620,107.3C1680,100,1740,84,1800,95.8C1860,107,1920,146,1980,168.7C2040,192,2100,199,2160,180.2C2220,161,2280,115,2340,107.3C2400,100,2460,130,2520,130.3C2580,130,2640,100,2700,84.3C2760,69,2820,69,2880,76.7C2940,84,3000,100,3060,107.3C3120,115,3180,115,3240,130.3C3300,146,3360,176,3420,157.2C3480,138,3540,69,3600,38.3C3660,8,3720,15,3780,38.3C3840,61,3900,100,3960,115C4020,130,4080,123,4140,103.5C4200,84,4260,54,4290,38.3L4320,23L4320,230L4290,230C4260,230,4200,230,4140,230C4080,230,4020,230,3960,230C3900,230,3840,230,3780,230C3720,230,3660,230,3600,230C3540,230,3480,230,3420,230C3360,230,3300,230,3240,230C3180,230,3120,230,3060,230C3000,230,2940,230,2880,230C2820,230,2760,230,2700,230C2640,230,2580,230,2520,230C2460,230,2400,230,2340,230C2280,230,2220,230,2160,230C2100,230,2040,230,1980,230C1920,230,1860,230,1800,230C1740,230,1680,230,1620,230C1560,230,1500,230,1440,230C1380,230,1320,230,1260,230C1200,230,1140,230,1080,230C1020,230,960,230,900,230C840,230,780,230,720,230C660,230,600,230,540,230C480,230,420,230,360,230C300,230,240,230,180,230C120,230,60,230,30,230L0,230Z"/></svg>